<svg xmlns="http://www.w3.org/2000/svg" width="21" height="21" viewBox="0 0 21 21">
  <g id="Group_1808" data-name="Group 1808" transform="translate(-0.202)">
    <g id="Rectangle_110" data-name="Rectangle 110" transform="translate(0.202)" fill="none" stroke="#c5cdd4" stroke-width="0.8">
      <rect width="21" height="21" rx="4" stroke="none"/>
      <rect x="0.4" y="0.4" width="20.2" height="20.2" rx="3.6" fill="none"/>
    </g>
    <g id="Group_486" data-name="Group 486" transform="translate(4.141 6.592)">
      <path id="Path_113" data-name="Path 113" d="M109.213,144.5v-.012c-.178-1.034-2.652-3.587-5.727-3.587s-5.5,2.457-5.742,3.53h0a.7.7,0,0,0-.029.192v.013a.523.523,0,0,0,.017.121v.018c.2,1.061,2.637,3.575,5.751,3.575,3.046,0,5.5-2.5,5.72-3.548a.655.655,0,0,0,.026-.166v-.013a.491.491,0,0,0-.015-.123Zm-.256.223c-.207.986-2.546,3.322-5.474,3.322s-5.32-2.373-5.5-3.343v-.029a.309.309,0,0,1-.008-.043v-.015h0a.441.441,0,0,1,.019-.1c.222-.984,2.592-3.314,5.5-3.314,2.948,0,5.31,2.381,5.476,3.353v.026a.064.064,0,0,0,.006.035c.006.009,0,0,0,.009h0c0,.005,0,.011,0,.016a.6.6,0,0,1-.017.084Z" transform="translate(-97.715 -140.901)" fill="#585e63" stroke="#585e63" stroke-width="0.5"/>
      <path id="Path_114" data-name="Path 114" d="M263.7,191.3a2.436,2.436,0,0,0-1.7.689,2.317,2.317,0,0,0,0,3.329,2.447,2.447,0,0,0,3.405,0,2.315,2.315,0,0,0,0-3.328A2.439,2.439,0,0,0,263.7,191.3Zm0,4.411a2.128,2.128,0,0,1-1.488-.6,2.024,2.024,0,0,1,0-2.909,2.138,2.138,0,0,1,2.975,0,2.022,2.022,0,0,1,0,2.908A2.131,2.131,0,0,1,263.7,195.711Z" transform="translate(-257.947 -189.929)" fill="#585e63" stroke="#585e63" stroke-width="0.5"/>
    </g>
  </g>
</svg>
