<svg xmlns="http://www.w3.org/2000/svg" width="26.751" height="22.25" viewBox="0 0 26.751 22.25">
  <g id="Group_1108" data-name="Group 1108" transform="translate(0.501 1)">
    <g id="Group_530" data-name="Group 530" transform="translate(0 0)">
      <g id="Group_536" data-name="Group 536" transform="translate(0 0)">
        <g id="Group_527" data-name="Group 527">
          <ellipse id="Ellipse_4" data-name="Ellipse 4" cx="4.857" cy="4.873" rx="4.857" ry="4.873" transform="translate(6.791 -1)" fill="#f8660b"/>
          <path id="Path_128" data-name="Path 128" d="M74.807,253.038c-5.416,1.36-7.418,7.08-7.748,9.806a.03.03,0,0,0,.032.033H90.325a.031.031,0,0,0,.031-.036c-1.078-6.821-5.73-9.375-7.94-9.8a.032.032,0,0,0-.026.007,5.837,5.837,0,0,1-7.554,0A.032.032,0,0,0,74.807,253.038Z" transform="translate(-67.059 -244.877)" fill="#f8660b" stroke="#fff" stroke-width="1"/>
        </g>
      </g>
    </g>
    <g id="Group_1107" data-name="Group 1107" transform="translate(15.824 10.821)">
      <path id="Path_182" data-name="Path 182" d="M135.946,60.4l-1.054-.136-.148-.019c-.011-.048-.024-.1-.037-.145a3.754,3.754,0,0,0-.356-.859c-.024-.043-.051-.087-.076-.129l.092-.12.649-.842a.268.268,0,0,0-.023-.353l-.606-.606a.265.265,0,0,0-.19-.079.26.26,0,0,0-.163.056l-.842.649-.12.092c-.042-.027-.085-.052-.129-.076a3.7,3.7,0,0,0-.859-.356l-.145-.037-.019-.148-.136-1.054a.272.272,0,0,0-.267-.235h-.858a.268.268,0,0,0-.265.233l-.136,1.054-.019.148-.145.037a3.754,3.754,0,0,0-.859.356c-.043.024-.087.051-.129.076l-.12-.092-.842-.649a.26.26,0,0,0-.163-.056.266.266,0,0,0-.19.079l-.606.606a.269.269,0,0,0-.023.353l.649.842.092.12c-.027.042-.052.085-.076.129a3.7,3.7,0,0,0-.356.859c-.013.048-.025.1-.037.145l-.148.019-1.054.136a.272.272,0,0,0-.235.267v.858a.268.268,0,0,0,.233.265l1.054.136.148.019c.011.048.024.1.037.145a3.753,3.753,0,0,0,.356.859c.024.043.051.087.076.129l-.092.12-.649.842a.268.268,0,0,0,.023.353l.606.606a.265.265,0,0,0,.19.079.26.26,0,0,0,.163-.056l.842-.649.12-.092c.042.027.085.052.129.076a3.7,3.7,0,0,0,.859.356l.145.037.019.148.136,1.054a.268.268,0,0,0,.265.233h.858a.268.268,0,0,0,.265-.233l.136-1.054.019-.148.145-.037a3.753,3.753,0,0,0,.859-.356c.043-.024.087-.051.129-.076l.12.092.842.649a.26.26,0,0,0,.163.056.266.266,0,0,0,.19-.079l.606-.606a.269.269,0,0,0,.023-.353l-.649-.842-.092-.12c.027-.042.052-.085.076-.129a3.7,3.7,0,0,0,.356-.859c.013-.048.025-.1.037-.145l.148-.019,1.054-.136a.268.268,0,0,0,.233-.265v-.858a.259.259,0,0,0-.228-.265Zm-4.858,2.673a1.979,1.979,0,1,1,1.979-1.979A1.981,1.981,0,0,1,131.089,63.07Z" transform="translate(-125.998 -56)" fill="#f8660b" stroke="#fff" stroke-width="0.5"/>
      <path id="Path_183" data-name="Path 183" d="M1.55-.543A2.28,2.28,0,0,1,3.825,1.488,2.549,2.549,0,0,1,1.55,3.811,2.331,2.331,0,0,1-.628,1.618,2.3,2.3,0,0,1,1.55-.543Z" transform="translate(3.5 3.5)" fill="#fff"/>
    </g>
  </g>
</svg>
