<svg xmlns="http://www.w3.org/2000/svg" width="34.501" height="19.5" viewBox="0 0 34.501 19.5">
  <g id="Group_530" data-name="Group 530" transform="translate(-1499.131 791.233)">
    <g id="Group_536" data-name="Group 536" transform="translate(1499.381 -791.233)">
      <g id="Group_528" data-name="Group 528" transform="translate(20.048 6)">
        <g id="Frame_8" data-name="Frame 8" transform="translate(0 0)">
          <circle id="Ellipse_4" data-name="Ellipse 4" cx="3.021" cy="3.021" r="3.021" transform="translate(3.567)" fill="#f8660b"/>
          <path id="Path_128" data-name="Path 128" d="M71.7,253.037c-3.244.868-4.442,4.522-4.64,6.263a.019.019,0,0,0,.019.021H80.992a.02.02,0,0,0,.019-.023c-.646-4.356-3.432-5.988-4.755-6.262a.018.018,0,0,0-.016,0,3.333,3.333,0,0,1-4.524,0A.018.018,0,0,0,71.7,253.037Z" transform="translate(-67.059 -247.205)" fill="#f8660b" stroke="#fff" stroke-width="0.5"/>
        </g>
      </g>
      <g id="Group_538" data-name="Group 538" transform="translate(0 6)">
        <g id="Frame_8-2" data-name="Frame 8" transform="translate(0 0)">
          <circle id="Ellipse_4-2" data-name="Ellipse 4" cx="3.021" cy="3.021" r="3.021" transform="translate(3.567)" fill="#f8660b"/>
          <path id="Path_128-2" data-name="Path 128" d="M71.7,253.037c-3.244.868-4.442,4.522-4.64,6.263a.019.019,0,0,0,.019.021H80.992a.02.02,0,0,0,.019-.023c-.646-4.356-3.432-5.988-4.755-6.262a.018.018,0,0,0-.016,0,3.333,3.333,0,0,1-4.524,0A.018.018,0,0,0,71.7,253.037Z" transform="translate(-67.059 -247.205)" fill="#f8660b" stroke="#fff" stroke-width="0.5"/>
        </g>
      </g>
      <g id="Group_527" data-name="Group 527" transform="translate(4.5 0)">
        <ellipse id="Ellipse_4-3" data-name="Ellipse 4" cx="4.857" cy="4.873" rx="4.857" ry="4.873" transform="translate(7.379)" fill="#f8660b"/>
        <path id="Path_128-3" data-name="Path 128" d="M75.2,253.038c-5.69,1.36-7.792,7.08-8.139,9.806a.031.031,0,0,0,.033.033H91.5a.032.032,0,0,0,.033-.036c-1.133-6.821-6.02-9.375-8.341-9.8a.035.035,0,0,0-.028.007,6.368,6.368,0,0,1-7.935,0A.035.035,0,0,0,75.2,253.038Z" transform="translate(-67.059 -243.877)" fill="#f8660b" stroke="#fff" stroke-width="1"/>
      </g>
    </g>
  </g>
</svg>
