<svg xmlns="http://www.w3.org/2000/svg" width="21" height="21" viewBox="0 0 21 21">
  <g id="Group_1447" data-name="Group 1447" transform="translate(-0.202)">
    <g id="Rectangle_110" data-name="Rectangle 110" transform="translate(0.202)" fill="none" stroke="#c5cdd4" stroke-width="0.8">
      <rect width="21" height="21" rx="4" stroke="none"/>
      <rect x="0.4" y="0.4" width="20.2" height="20.2" rx="3.6" fill="none"/>
    </g>
    <path id="Path_3949" data-name="Path 3949" d="M.123,12.8a.542.542,0,0,0,.418.2.562.562,0,0,0,.135-.019L6.5,11.392l5.823,1.586a.562.562,0,0,0,.135.022.542.542,0,0,0,.485-.784L6.984.294A.441.441,0,0,0,6.945.245.451.451,0,0,0,6.791.091.441.441,0,0,0,6.742.052.053.053,0,0,1,6.705.042.569.569,0,0,0,6.6.012a.406.406,0,0,0-.2,0,.6.6,0,0,0-.107.03.053.053,0,0,0-.037.009.442.442,0,0,0-.049.039.451.451,0,0,0-.154.154.442.442,0,0,0-.039.049L.056,12.216A.542.542,0,0,0,.123,12.8ZM6.5,1.746l4.932,9.868-4.39-1.2V6.5a.542.542,0,1,0-1.083,0v3.918l-4.39,1.2Z" transform="translate(17.397 4) rotate(90)" fill="#585e63"/>
  </g>
</svg>
