<svg xmlns="http://www.w3.org/2000/svg" width="21" height="21" viewBox="0 0 21 21">
  <g id="Group_1451" data-name="Group 1451" transform="translate(-0.202)">
    <g id="Rectangle_187" data-name="Rectangle 187" transform="translate(0.202)" fill="none" stroke="#c5cdd4" stroke-width="0.8">
      <rect width="21" height="21" rx="4" stroke="none"/>
      <rect x="0.4" y="0.4" width="20.2" height="20.2" rx="3.6" fill="none"/>
    </g>
    <g id="Group_1458" data-name="Group 1458" transform="translate(4.397 5)">
      <path id="Path_3950" data-name="Path 3950" d="M16.412,7.2a6.114,6.114,0,0,0-10.6,2.291c-.02.073-.031.148-.048.222h1.4A4.681,4.681,0,0,1,9.339,6.979a4.765,4.765,0,0,1,6.267,1.388H13.02V9.713h4.748V5H16.412Z" transform="translate(-5.768 -5)" fill="#585e63"/>
      <path id="Path_3951" data-name="Path 3951" d="M14.2,62.715A4.765,4.765,0,0,1,7.93,61.327h2.585V59.981H5.768v4.711H7.125v-2.2A6.115,6.115,0,0,0,17.72,60.2c.02-.073.031-.148.048-.222h-1.4A4.681,4.681,0,0,1,14.2,62.715Z" transform="translate(-5.768 -52.695)" fill="#585e63"/>
    </g>
  </g>
</svg>
