<svg xmlns="http://www.w3.org/2000/svg" width="354" height="40" viewBox="0 0 354 40">
  <g id="Group_1435" data-name="Group 1435" transform="translate(-411 -374.541)">
    <g id="Group_1430" data-name="Group 1430" transform="translate(647.752 401.368)">
      <path id="Path_3935" data-name="Path 3935" d="M536.173,201.343a2.986,2.986,0,0,0,.633.468c.185.053-.41,1.295-.41,1.295S535.682,201.9,536.173,201.343Z" transform="translate(-536.001 -201.343)" fill="#cf8c6c"/>
    </g>
    <rect id="Rectangle_201" data-name="Rectangle 201" width="3.437" height="19.234" transform="matrix(0.04, -0.999, 0.999, 0.04, 586.84, 385.603)" fill="#bcc0cf"/>
    <rect id="Rectangle_202" data-name="Rectangle 202" width="3.437" height="19.234" transform="matrix(-0.04, 0.999, -0.999, -0.04, 605.596, 397.545)" fill="#bcc0cf"/>
    <rect id="Rectangle_203" data-name="Rectangle 203" width="5.185" height="32.574" transform="matrix(0.999, 0.04, -0.04, 0.999, 590.282, 375.531)" fill="#dbdff0"/>
    <g id="Group_1431" data-name="Group 1431" transform="translate(411 374.541)">
      <path id="Path_3936" data-name="Path 3936" d="M160.252,154.738c-.261-.107-.722-.279-1.333-.467a21.161,21.161,0,0,0-5.6-.913,18.208,18.208,0,0,0-14.2,6.142c-1.253,1.363-2.427,2.692-3.56,3.982-1.988,2.25-3.782,4.286-5.5,5.937-.155.154-.31.3-.461.441q-.724.676-1.426,1.243c-.173.137-.341.27-.505.394-3.489,2.645-6.819,3.232-10.951.167a18.357,18.357,0,0,1-3.578-3.9c-.168-.227-.332-.454-.5-.686v0c-.461-.664-.925-1.367-1.39-2.1a0,0,0,0,0,0,0c-1.036-1.62-2.086-3.382-3.162-5.187-.314-.527-.633-1.067-.956-1.6-.1-.163-.194-.326-.3-.492a.06.06,0,0,1-.013-.017v0c-.08-.137-.164-.275-.244-.416-.022-.03-.044-.068-.066-.1q-.585-.978-1.192-1.951c-.19-.3-.376-.6-.558-.887v0c-.066-.1-.128-.2-.195-.3-.018-.03-.035-.051-.048-.077q-.684-1.074-1.386-2.122c-.137-.205-.279-.411-.42-.617-.217-.317-.438-.634-.664-.947s-.456-.634-.691-.952a.825.825,0,0,0-.08-.107c-.576-.776-1.169-1.534-1.776-2.259-.116-.137-.235-.283-.35-.42v0c-.456-.523-.908-1.016-1.373-1.5a19.248,19.248,0,0,0-9.056-5.735c-.159-.039-.327-.073-.491-.107-.217-.047-.434-.09-.655-.124a13.828,13.828,0,0,0-2.258-.163c-4.256.051-8.684,2.092-13.453,6.185a25.662,25.662,0,0,1-6.186,3.524c-4.424,1.684-7.869,1.144-10.239-1.595-2.515-2.915-6.164-4.907-10.893-5.949h-.013q-1.4-.315-2.945-.514l-.2-.026c-1.244-.154-2.555-.257-3.923-.3-7.16-.236-15.875,1.054-25.989,3.836-.124.034-.248.069-.381.1q-1.395.392-2.83.814a.2.2,0,0,1-.035.013q-1.959.585-3.977,1.234c-1.519.489-2.931.883-4.251,1.188v1.252q2.159-.482,4.645-1.282c1.32-.429,2.626-.831,3.906-1.213.066-.021.128-.043.19-.06h0c.186-.056.376-.112.558-.163.332-.1.669-.193,1-.292a.652.652,0,0,1,.071-.017h0c.111-.034.217-.064.323-.094l.633-.18c.213-.056.425-.116.633-.176,9.919-2.717,18.457-3.982,25.454-3.75,1.258.043,2.458.129,3.6.266.195.021.381.047.571.073.168.021.341.047.5.073.244.034.487.073.722.116.5.085.992.18,1.466.287.084.017.173.039.257.06a18.1,18.1,0,0,1,9.933,5.478c2.719,3.15,6.762,3.819,11.682,1.937a26.7,26.7,0,0,0,6.527-3.724c4.562-3.913,8.733-5.859,12.7-5.889h.194c.252,0,.505.013.757.034,0,0,0,0,.009,0,.287.017.567.047.85.09a.363.363,0,0,1,.066.013h0a.823.823,0,0,1,.1.009l.217.039c.35.06.686.137,1.023.227.106.026.2.056.31.086a19.064,19.064,0,0,1,8.348,5.67q.943,1.022,1.842,2.148c.287.36.576.72.859,1.1a0,0,0,0,1,0,0c.04.051.071.1.116.154.633.844,1.258,1.723,1.864,2.627v0c.12.163.23.33.341.5.066.1.128.193.19.291v0q.771,1.157,1.514,2.348c.262.416.514.831.775,1.252v0c.128.206.252.407.377.617l.093.154c.053.081.1.163.151.244.035.064.075.133.115.193a.113.113,0,0,1,.018.03.09.09,0,0,1,.018.026c.492.819.979,1.637,1.461,2.443,1.771,2.983,3.41,5.735,5.03,7.972.239.334.478.652.713.96a0,0,0,0,1,0,0c.345.446.686.862,1.041,1.256l0,0a14.113,14.113,0,0,0,2.156,2.04,10.174,10.174,0,0,0,6.1,2.328,10.781,10.781,0,0,0,6.532-2.64.022.022,0,0,1,.013-.009c.682-.527,1.364-1.118,2.055-1.766l.009-.009s.009,0,.013-.009c.111-.107.226-.214.337-.326,1.776-1.705,3.578-3.75,5.5-5.923,1.13-1.286,2.3-2.61,3.547-3.96a16.741,16.741,0,0,1,13.178-5.735,19.994,19.994,0,0,1,5.633.96,11.865,11.865,0,0,1,1.116.416l.239-.493v-.009l.022-.047.27-.549C160.5,154.845,160.406,154.8,160.252,154.738Z" transform="translate(-0.002 -138.865)" fill="#bcc0cf"/>
    </g>
    <g id="Group_1434" data-name="Group 1434" transform="translate(631.082 376.117)">
      <path id="Path_3945" data-name="Path 3945" d="M632.943,143.29v1.3c-23.956-3.15-28.543,2.519-37.528,13.638-2.87,3.551-6.129,7.579-10.469,12.088-8.1,8.409-20.06,10.53-30.059,10.53a80.821,80.821,0,0,1-14.325-1.332c-13.271-2.439-24.723-7.811-26.632-12.488-4.149-10.182-14.033-6.824-14.449-6.678l-.456-1.211c.115-.039,11.509-3.947,16.141,7.412,1.514,3.71,11.523,9.1,25.644,11.7,8.861,1.627,30.8,4.028,43.162-8.808,4.3-4.471,7.541-8.477,10.4-12.007C603.643,145.96,608.39,140.089,632.943,143.29Z" transform="translate(-499.025 -142.423)" fill="#bcc0cf"/>
    </g>
    <path id="Path_3946" data-name="Path 3946" d="M371.457,173.187l10.241.411,1.212-30.186L372.669,143a10.447,10.447,0,0,0-10.858,10.02l-.374,9.308A10.448,10.448,0,0,0,371.457,173.187Z" transform="translate(209.189 233.376)" fill="#dbdff0"/>
    <rect id="Rectangle_204" data-name="Rectangle 204" width="2.702" height="7.786" transform="translate(569.645 386.66) rotate(2.304)" fill="#dbdff0"/>
    <path id="Path_3947" data-name="Path 3947" d="M471.238,148.152,461,147.741l-1.212,30.186,10.241.411a10.447,10.447,0,0,0,10.858-10.02l.374-9.308A10.447,10.447,0,0,0,471.238,148.152Z" transform="translate(154.27 230.731)" fill="#dbdff0"/>
    <rect id="Rectangle_205" data-name="Rectangle 205" width="2.702" height="7.786" transform="translate(636.514 397.76) rotate(-177.696)" fill="#dbdff0"/>
  </g>
</svg>
