<svg xmlns="http://www.w3.org/2000/svg" width="24" height="24" viewBox="0 0 24 24">
  <path id="noun-history-3669652" d="M105.006,23.328a11.982,11.982,0,0,0-9.243,19.619H94.1a1.091,1.091,0,1,0,0,2.182h4.361a1.091,1.091,0,0,0,.654-1.965,9.754,9.754,0,1,1,3.926,1.781,1.092,1.092,0,1,0-.438,2.139,12,12,0,1,0,2.4-23.757Zm0,4.364a7.638,7.638,0,1,0,7.629,7.634A7.654,7.654,0,0,0,105.01,27.691Zm-.017,2.165a1.091,1.091,0,0,1,1.1,1.112v3.268h3.266a1.092,1.092,0,0,1,0,2.184H105.01a1.091,1.091,0,0,1-1.1-1.1V30.968a1.091,1.091,0,0,1,1.08-1.112Z" transform="translate(-92.998 -23.328)" fill="#9aa4ac" fill-rule="evenodd"/>
</svg>
