<svg xmlns="http://www.w3.org/2000/svg" width="22.264" height="17.909" viewBox="0 0 22.264 17.909">
  <g id="Group_1812" data-name="Group 1812" transform="translate(2133 4835)">
    <path id="Path_3952" data-name="Path 3952" d="M42.31,30.88l-.81,1.932h1.621Z" transform="translate(-2158.248 -4856.534)" fill="#9aa4ac"/>
    <path id="Path_3953" data-name="Path 3953" d="M27,29.416v1.469a1.9,1.9,0,0,0,1.9,1.9h5.708l2,2a.446.446,0,0,0,.312.129.484.484,0,0,0,.174-.036.442.442,0,0,0,.272-.41V32.782h.209a1.9,1.9,0,0,0,1.9-1.9V24.607a1.9,1.9,0,0,0-1.9-1.9H32.388V26.4a3.021,3.021,0,0,1-3.019,3.014Zm4.724.7.655-1.563v0l1.478-3.531a.442.442,0,0,1,.819,0l1.478,3.531,0,0,.65,1.563a.443.443,0,0,1-.236.583.477.477,0,0,1-.174.031.445.445,0,0,1-.41-.272l-.539-1.291H33.082l-.539,1.291a.444.444,0,1,1-.819-.343Z" transform="translate(-2150.204 -4852.001)" fill="#9aa4ac"/>
    <path id="Path_3954" data-name="Path 3954" d="M20.821,20.65H18.96a9.022,9.022,0,0,0,.931,1.5A9.022,9.022,0,0,0,20.821,20.65Z" transform="translate(-2145.744 -4850.859)" fill="#9aa4ac"/>
    <path id="Path_3955" data-name="Path 3955" d="M7.124,21.414h.312v2.017a.448.448,0,0,0,.272.414.478.478,0,0,0,.174.031.438.438,0,0,0,.312-.129l2.338-2.333h6.635a2.13,2.13,0,0,0,2.128-2.124V12.018A2.134,2.134,0,0,0,17.165,9.89H7.124A2.13,2.13,0,0,0,5,12.018v7.267A2.127,2.127,0,0,0,7.124,21.414Zm1.9-7.623H11.7V12.9a.445.445,0,0,1,.891,0v.886h2.676a.445.445,0,1,1,0,.891H14.061a9.618,9.618,0,0,1-1.314,2.168,4.071,4.071,0,0,0,1.941,1.113.446.446,0,0,1-.094.882.339.339,0,0,1-.094-.013,4.917,4.917,0,0,1-2.355-1.322,4.937,4.937,0,0,1-2.355,1.322.371.371,0,0,1-.1.013.446.446,0,0,1-.094-.882,4.065,4.065,0,0,0,1.941-1.113,9.691,9.691,0,0,1-1.314-2.168h-1.2a.445.445,0,1,1,0-.891Z" transform="translate(-2138 -4844.89)" fill="#9aa4ac"/>
  </g>
</svg>
