<svg xmlns="http://www.w3.org/2000/svg" width="24" height="24" viewBox="0 0 24 24">
  <g id="Group_552" data-name="Group 552" transform="translate(-41.638 -534.124)">
    <path id="Path_136" data-name="Path 136" d="M205.973,35a7.673,7.673,0,0,1,7.638,7.7,13.131,13.131,0,0,1-2.586,7.225,25.717,25.717,0,0,1-4.69,5.087h0a.584.584,0,0,1-.724,0h0a25.712,25.712,0,0,1-4.69-5.087,13.129,13.129,0,0,1-2.586-7.225,7.673,7.673,0,0,1,7.638-7.7Zm0,4.738a2.962,2.962,0,1,0,2.938,2.962A2.951,2.951,0,0,0,205.973,39.738Z" transform="translate(-152.335 499.124)" fill="#9aa4ac" fill-rule="evenodd"/>
    <path id="Path_135" data-name="Path 135" d="M225.51,383.69a12.558,12.558,0,0,0-1.677.668c-1.344.664-2.17,1.474-2.17,2.36s.826,1.7,2.17,2.36a27.941,27.941,0,0,0,19.661,0c1.344-.664,2.17-1.474,2.17-2.36s-.826-1.7-2.17-2.36a12.557,12.557,0,0,0-1.677-.668,49.155,49.155,0,0,1-6.139,3.243,5.576,5.576,0,0,1-4.03,0,49.149,49.149,0,0,1-6.139-3.243Z" transform="translate(-180.025 167.26)" fill="#9aa4ac" fill-rule="evenodd"/>
  </g>
</svg>
