<svg xmlns="http://www.w3.org/2000/svg" width="293.145" height="141" viewBox="0 0 293.145 141">
  <g id="Group_1000002406" data-name="Group 1000002406" transform="translate(-8 -8)" opacity="0.32">
    <path id="Path_3957" data-name="Path 3957" d="M160.47,309h46.938v51.794H142.173c-2.275-.422-6.8-2.815-6.685-9.008s4.5-8.116,6.685-8.3h18.3c3.542.657,10.725-.042,11.119-8.093s-4.668-9.735-7.248-9.571c-2.862.07-8.811-1.351-9.711-7.6S158.147,309.469,160.47,309Z" transform="translate(-108.254 -257.347)" fill="#9aa4ac"/>
    <path id="Path_3958" data-name="Path 3958" d="M1356.937,129.482H1310V95h65.234c2.274.281,6.8,1.874,6.685,6s-4.5,5.4-6.685,5.528h-18.3c-3.543-.437-10.725.028-11.119,5.388s4.668,6.481,7.248,6.372c2.861-.047,8.811.9,9.711,5.06S1359.259,129.17,1356.937,129.482Z" transform="translate(-1117.462 -73.466)" fill="#9aa4ac"/>
    <path id="Path_3959" data-name="Path 3959" d="M9.5,990H54.468" transform="translate(0 -842.5)" fill="none" stroke="#9aa4ac" stroke-linecap="round" stroke-width="3"/>
    <path id="Path_3960" data-name="Path 3960" d="M245,930h44.968" transform="translate(-202.355 -790.945)" fill="none" stroke="#9aa4ac" stroke-linecap="round" stroke-width="3"/>
    <path id="Path_3961" data-name="Path 3961" d="M1501,930h52.92" transform="translate(-1281.58 -790.945)" fill="none" stroke="#9aa4ac" stroke-linecap="round" stroke-width="3"/>
    <path id="Path_3962" data-name="Path 3962" d="M1445,990h10.7" transform="translate(-1233.461 -842.5)" fill="none" stroke="#9aa4ac" stroke-linecap="round" stroke-width="3"/>
    <path id="Path_3963" data-name="Path 3963" d="M380,990h47.712" transform="translate(-318.354 -842.5)" fill="#9aa4ac" stroke="#9aa4ac" stroke-linecap="round" stroke-width="3"/>
    <path id="Path_3964" data-name="Path 3964" d="M1570,990h70.513" transform="translate(-1340.868 -842.5)" fill="none" stroke="#9aa4ac" stroke-linecap="round" stroke-width="3"/>
    <path id="Path_3965" data-name="Path 3965" d="M634.5,737.309V702.4l11.963-5.067,8.867,5.067,9.359-5.067,8.656,5.067,8.234-5.067,8.163,5.067,9.148-5.067,8.445,5.067,7.53-6.4,8.234,6.4,9.078-6.4,10.7,6.4v34.9Z" transform="translate(-537.035 -589.879)" fill="none" stroke="#9aa4ac" stroke-width="3"/>
    <path id="Path_3966" data-name="Path 3966" d="M661.053,99.265,652,103.321V13.3a3.8,3.8,0,0,1,3.8-3.8h83.56l17.072,17.545v76.2l-8.1-3.963-.566-.276-.562.283-9.015,4.54-7.423-4.493-.619-.375-.638.344-8.381,4.518-7.69-4.5-.642-.376-.64.378-7.623,4.5L696.013,99.3l-.644-.342-.619.385L687.58,103.8l-7.86-4.482-.61-.348-.618.333-8.389,4.522-7.9-4.508L661.639,99Z" transform="translate(-552.072)" fill="#fff" stroke="#9aa4ac" stroke-width="3"/>
    <path id="Path_3967" data-name="Path 3967" d="M1270,17.5V30.519a4.5,4.5,0,0,0,4.5,4.5h12.737" transform="translate(-1083.092 -6.874)" fill="none" stroke="#9aa4ac" stroke-width="3"/>
    <circle id="Ellipse_17" data-name="Ellipse 17" cx="4.856" cy="4.856" r="4.856" transform="translate(171.849 41.801)" fill="#9aa4ac"/>
    <circle id="Ellipse_18" data-name="Ellipse 18" cx="4.856" cy="4.856" r="4.856" transform="translate(122.447 41.801)" fill="#9aa4ac"/>
    <path id="Path_3968" data-name="Path 3968" d="M920,450.366c4.5-5.888,17.692-14.131,28.782,0" transform="translate(-782.352 -372.113)" fill="none" stroke="#9aa4ac" stroke-linecap="round" stroke-width="3"/>
  </g>
</svg>
