<svg xmlns="http://www.w3.org/2000/svg" width="20" height="20" viewBox="0 0 20 20">
  <g id="Group_1442" data-name="Group 1442" transform="translate(-304 -479)">
    <path id="Path_3920" data-name="Path 3920" d="M136.56,56.559a10,10,0,1,0,10,10A10.012,10.012,0,0,0,136.56,56.559Zm5.589,7.368-6.391,6.341a.983.983,0,0,1-1.378.025L131,67.211a1.016,1.016,0,0,1-.075-1.4.991.991,0,0,1,1.4-.05l2.682,2.456,5.714-5.714a1.01,1.01,0,1,1,1.428,1.429Z" transform="translate(177.44 422.441)" fill="#fff"/>
  </g>
</svg>
